<svg width="32" height="32" viewBox="0 0 32 32" fill="none" xmlns="http://www.w3.org/2000/svg">
<path d="M16 18.6666L28 12L16 5.33331L4 12L16 18.6666Z" stroke="#1E1E1E" stroke-width="2" stroke-linecap="round" stroke-linejoin="round"/>
<path d="M16 18.6667L24.2134 14.104C25.2934 16.848 25.6 19.8373 25.1 22.7427C21.7181 23.0709 18.5296 24.4715 16 26.74C13.4708 24.4718 10.2828 23.0712 6.90135 22.7427C6.40029 19.8362 6.707 16.848 7.78802 14.104L16 18.6667Z" stroke="#1E1E1E" stroke-width="2" stroke-linecap="round" stroke-linejoin="round"/>
<path d="M16 18.6666L28 12L16 5.33331L4 12L16 18.6666ZM16 18.6666L24.2133 14.104C25.2933 16.848 25.6 19.8373 25.1 22.7426C21.7181 23.0709 18.5296 24.4715 16 26.74C13.4707 24.4717 10.2828 23.0712 6.90133 22.7426C6.40027 19.8362 6.70698 16.848 7.788 14.104L16 18.6666ZM10.6667 26.6666V16.6666L16 13.704" stroke="#1E1E1E" stroke-width="2" stroke-linecap="round" stroke-linejoin="round"/>
</svg>
