<svg width="46" height="46" viewBox="0 0 46 46" fill="none" xmlns="http://www.w3.org/2000/svg">
<path d="M27.0653 29.7774C24.8208 33.5187 21.1811 33.5187 18.9348 29.7774C16.6884 26.0341 16.6884 19.9659 18.9348 16.2227C21.1792 12.4814 24.8189 12.4814 27.0653 16.2227" stroke="black" stroke-width="3.83333" stroke-linecap="round" stroke-linejoin="round"/>
<path d="M15.3334 20.125H23" stroke="black" stroke-width="3.83333" stroke-linecap="round" stroke-linejoin="round"/>
<path d="M15.3334 25.875H23" stroke="black" stroke-width="3.83333" stroke-linecap="round" stroke-linejoin="round"/>
<path d="M40.25 23C40.25 25.2653 39.8038 27.5084 38.9369 29.6013C38.07 31.6942 36.7994 33.5958 35.1976 35.1976C33.5958 36.7994 31.6942 38.07 29.6013 38.9369C27.5084 39.8038 25.2653 40.25 23 40.25C20.7347 40.25 18.4916 39.8038 16.3987 38.9369C14.3058 38.07 12.4042 36.7994 10.8024 35.1976C9.2006 33.5958 7.92997 31.6942 7.06308 29.6013C6.19618 27.5084 5.75 25.2653 5.75 23C5.75 18.425 7.56741 14.0374 10.8024 10.8024C14.0374 7.56741 18.425 5.75 23 5.75C27.575 5.75 31.9626 7.56741 35.1976 10.8024C38.4326 14.0374 40.25 18.425 40.25 23Z" stroke="black" stroke-width="3.83333" stroke-linecap="round" stroke-linejoin="round"/>
</svg>
