<svg width="32" height="32" viewBox="0 0 32 32" fill="none" xmlns="http://www.w3.org/2000/svg">
<path d="M9.33337 15.3333C9.33337 14.8029 9.12266 14.2942 8.74759 13.9191C8.37252 13.544 7.86381 13.3333 7.33337 13.3333C6.80294 13.3333 6.29423 13.544 5.91916 13.9191C5.54409 14.2942 5.33337 14.8029 5.33337 15.3333V18C5.33337 20.6521 6.38694 23.1957 8.26231 25.071C10.1377 26.9464 12.6812 28 15.3334 28C17.9855 28 20.5291 26.9464 22.4044 25.071C24.2798 23.1957 25.3334 20.6521 25.3334 18V11.3333C25.3334 10.8029 25.1227 10.2942 24.7476 9.9191C24.3725 9.54403 23.8638 9.33331 23.3334 9.33331C22.8029 9.33331 22.2942 9.54403 21.9192 9.9191C21.5441 10.2942 21.3334 10.8029 21.3334 11.3333" stroke="#1E1E1E" stroke-width="2" stroke-linecap="round" stroke-linejoin="round"/>
<path d="M21.3334 14.6666V7.33331C21.3334 6.80288 21.1227 6.29417 20.7476 5.9191C20.3725 5.54403 19.8638 5.33331 19.3334 5.33331C18.8029 5.33331 18.2942 5.54403 17.9192 5.9191C17.5441 6.29417 17.3334 6.80288 17.3334 7.33331V14.6666" stroke="#1E1E1E" stroke-width="2" stroke-linecap="round" stroke-linejoin="round"/>
<path d="M13.3334 14.6667V6C13.3334 5.46957 13.5441 4.96086 13.9192 4.58579C14.2942 4.21071 14.8029 4 15.3334 4C15.8638 4 16.3725 4.21071 16.7476 4.58579C17.1227 4.96086 17.3334 5.46957 17.3334 6V7.33333" stroke="#1E1E1E" stroke-width="2" stroke-linecap="round" stroke-linejoin="round"/>
<path d="M9.33337 18.6666V7.33331C9.33337 6.80288 9.54409 6.29417 9.91916 5.9191C10.2942 5.54403 10.8029 5.33331 11.3334 5.33331C11.8638 5.33331 12.3725 5.54403 12.7476 5.9191C13.1227 6.29417 13.3334 6.80288 13.3334 7.33331" stroke="#1E1E1E" stroke-width="2" stroke-linecap="round" stroke-linejoin="round"/>
</svg>
