<svg width="32" height="32" viewBox="0 0 32 32" fill="none" xmlns="http://www.w3.org/2000/svg">
<path d="M26.6667 20C25.78 22.1866 23.4187 24.02 21.3787 25.2093C19.8556 26.0974 18.1361 26.5943 16.3741 26.6556C14.612 26.7169 12.8622 26.3406 11.2811 25.5605C9.69992 24.7804 8.3367 23.6206 7.31323 22.185C6.28976 20.7493 5.63794 19.0824 5.41602 17.3333" stroke="#1E1E1E" stroke-width="2" stroke-linecap="round" stroke-linejoin="round"/>
<path d="M26.6667 26.6667V20H20" stroke="#1E1E1E" stroke-width="2" stroke-linecap="round" stroke-linejoin="round"/>
<path d="M5.33337 12C6.21871 9.81067 8.58137 7.97734 10.62 6.78667C12.1433 5.89717 13.8633 5.39926 15.6262 5.33753C17.3891 5.2758 19.1397 5.65216 20.7215 6.43292C22.3032 7.21369 23.6667 8.37449 24.6898 9.81141C25.7129 11.2483 26.3637 12.9165 26.584 14.6667" stroke="#1E1E1E" stroke-width="2" stroke-linecap="round" stroke-linejoin="round"/>
<path d="M5.33337 5.33331V12H12" stroke="#1E1E1E" stroke-width="2" stroke-linecap="round" stroke-linejoin="round"/>
</svg>
