<svg width="46" height="46" viewBox="0 0 46 46" fill="none" xmlns="http://www.w3.org/2000/svg">
<path d="M13.4167 13.4167H13.4358M13.4167 5.75H23C23.5035 5.74906 24.0022 5.84782 24.4674 6.0406C24.9325 6.23337 25.3549 6.51633 25.7102 6.87317L39.1268 20.2898C39.8455 21.0087 40.2492 21.9835 40.2492 23C40.2492 24.0165 39.8455 24.9913 39.1268 25.7102L25.7102 39.1268C24.9913 39.8455 24.0165 40.2492 23 40.2492C21.9835 40.2492 21.0087 39.8455 20.2898 39.1268L6.87317 25.7102C6.51676 25.3546 6.23407 24.9322 6.04133 24.4671C5.84859 24.002 5.74959 23.5034 5.75 23V13.4167C5.75 11.3833 6.55774 9.43329 7.99552 7.99551C9.43329 6.55774 11.3833 5.75 13.4167 5.75Z" stroke="black" stroke-width="3.83333" stroke-linecap="round" stroke-linejoin="round"/>
</svg>
