<svg width="46" height="46" viewBox="0 0 46 46" fill="none" xmlns="http://www.w3.org/2000/svg">
<path d="M8.22821 8.22824C7.86874 8.5876 7.66673 9.07503 7.66663 9.58332V13.4167C7.66663 13.925 7.86856 14.4125 8.22801 14.7719C8.58745 15.1314 9.07496 15.3333 9.58329 15.3333H36.4166C36.925 15.3333 37.4125 15.1314 37.7719 14.7719C38.1314 14.4125 38.3333 13.925 38.3333 13.4167V9.58332C38.3333 9.07499 38.1314 8.58748 37.7719 8.22804C37.4125 7.86859 36.925 7.66666 36.4166 7.66666H9.58329C9.075 7.66677 8.58757 7.86877 8.22821 8.22824Z" stroke="black" stroke-width="3.83333" stroke-linecap="round" stroke-linejoin="round"/>
<path d="M8.22821 23.5616C7.86874 23.9209 7.66673 24.4084 7.66663 24.9167V36.4167C7.66663 36.925 7.86856 37.4125 8.22801 37.772C8.58745 38.1314 9.07496 38.3333 9.58329 38.3333H21.0833C21.5916 38.3333 22.0791 38.1314 22.4386 37.772C22.798 37.4125 23 36.925 23 36.4167V24.9167C23 24.4083 22.798 23.9208 22.4386 23.5614C22.0791 23.2019 21.5916 23 21.0833 23H9.58329C9.075 23.0001 8.58757 23.2021 8.22821 23.5616Z" stroke="black" stroke-width="3.83333" stroke-linecap="round" stroke-linejoin="round"/>
<path d="M31.2282 23.5616C30.8687 23.9209 30.6667 24.4084 30.6666 24.9167V36.4167C30.6666 36.925 30.8686 37.4125 31.228 37.772C31.5874 38.1314 32.075 38.3333 32.5833 38.3333H36.4166C36.925 38.3333 37.4125 38.1314 37.7719 37.772C38.1314 37.4125 38.3333 36.925 38.3333 36.4167V24.9167C38.3333 24.4083 38.1314 23.9208 37.7719 23.5614C37.4125 23.2019 36.925 23 36.4166 23H32.5833C32.075 23.0001 31.5876 23.2021 31.2282 23.5616Z" stroke="black" stroke-width="3.83333" stroke-linecap="round" stroke-linejoin="round"/>
</svg>
