<svg width="26" height="26" viewBox="0 0 26 26" fill="none" xmlns="http://www.w3.org/2000/svg">
<path d="M1.39067 1.39067C1.1406 1.64066 1.00008 1.97974 1 2.33333V5.78133C1.00008 6.13493 1.1406 6.47401 1.39067 6.724L9.94267 15.276C10.1927 15.526 10.3333 15.8651 10.3333 16.2187V25L15.6667 19.6667V16.2187C15.6667 15.8651 15.8073 15.526 16.0573 15.276L24.6093 6.724C24.8594 6.47401 24.9999 6.13493 25 5.78133V2.33333C25 1.97971 24.8595 1.64057 24.6095 1.39052C24.3594 1.14048 24.0203 1 23.6667 1H2.33333C1.97974 1.00008 1.64066 1.1406 1.39067 1.39067Z" stroke="#1E1E1E" stroke-width="2" stroke-linecap="round" stroke-linejoin="round"/>
</svg>
